<?xml version="1.0" standalone="no"?><!DOCTYPE svg PUBLIC "-//W3C//DTD SVG 1.1//EN" "http://www.w3.org/Graphics/SVG/1.1/DTD/svg11.dtd"><svg t="1690700202693" class="icon" viewBox="0 0 1024 1024" version="1.1" xmlns="http://www.w3.org/2000/svg" p-id="971" xmlns:xlink="http://www.w3.org/1999/xlink" width="32" height="32"><path d="M348.16 120.1152c-68.4544 0-98.9696 38.5536-109.7216 70.7584C230.8096 213.8112 199.68 310.2208 199.68 310.2208H118.1696c-23.2448 0-32.0512 7.6288-32.0512 19.456v24.9856c0 15.36 22.1184 23.808 35.2768 23.808h16.0256a58.9312 58.9312 0 0 0-12.9536 27.4944c-2.8672 16.5888-13.1584 73.7792-13.1584 175.0528v165.3248a32.6144 32.6144 0 0 0 32.6144 32.5632h95.6416a32.6144 32.6144 0 0 0 32.6144-32.5632v-58.9312h464.2816v58.9312a32.6144 32.6144 0 0 0 32.6144 32.5632h95.6416a32.6144 32.6144 0 0 0 32.6144-32.5632v-165.3248c0-101.2736-10.24-158.464-13.1584-175.0528a58.9312 58.9312 0 0 0-12.9536-27.4944h16.0256c13.1584 0 35.2768-8.5504 35.2768-23.808v-24.9856c0-11.8272-8.8064-19.456-32.0512-19.456H808.96s-31.0272-96.4096-38.656-119.3472C759.4496 158.72 728.9344 120.1152 660.48 120.1152z" fill="#FB6F5C" p-id="972"></path><path d="M403.456 507.5968m19.4048 0l162.9184 0q19.4048 0 19.4048 19.4048l0 45.1072q0 19.4048-19.4048 19.4048l-162.9184 0q-19.4048 0-19.4048-19.4048l0-45.1072q0-19.4048 19.4048-19.4048Z" fill="#FFFFFF" p-id="973"></path><path d="M277.8624 557.9264m-59.8528 0a59.8528 59.8528 0 1 0 119.7056 0 59.8528 59.8528 0 1 0-119.7056 0Z" fill="#FFFFFF" p-id="974"></path><path d="M731.8016 557.9264m-59.8528 0a59.8528 59.8528 0 1 0 119.7056 0 59.8528 59.8528 0 1 0-119.7056 0Z" fill="#FFFFFF" p-id="975"></path><path d="M251.136 328.5504l33.7408-115.6096a27.1872 27.1872 0 0 1 26.112-19.6096H696.32a27.2384 27.2384 0 0 1 26.1632 19.6096l33.7408 115.6096a40.96 40.96 0 0 1-39.424 52.4288H290.4576a40.96 40.96 0 0 1-39.3216-52.4288z" fill="#FFFFFF" p-id="976"></path><path d="M66.1504 813.0048m19.968 0l836.4544 0q19.968 0 19.968 19.968l0 40.1408q0 19.968-19.968 19.968l-836.4544 0q-19.968 0-19.968-19.968l0-40.1408q0-19.968 19.968-19.968Z" fill="#FB6F5C" p-id="977"></path><path d="M856.4736 503.296h-150.3744a59.5456 59.5456 0 0 0-51.5072 29.7472l-75.1616 130.2016a59.392 59.392 0 0 0 0 59.4944l75.1616 130.2528a59.5456 59.5456 0 0 0 51.5072 29.7472h150.3744a59.4944 59.4944 0 0 0 51.5072-29.7472L983.04 722.7392a59.648 59.648 0 0 0 0-59.4944l-75.2128-130.2016a59.4944 59.4944 0 0 0-51.3536-29.7472z" fill="#FEAFA0" p-id="978"></path><path d="M781.312 811.6224a118.6304 118.6304 0 1 1 118.6304-118.6304 118.7328 118.7328 0 0 1-118.6304 118.6304z m0-175.7696a57.1904 57.1904 0 1 0 57.1904 57.1392 57.2416 57.2416 0 0 0-57.1904-57.1392z" fill="#FFFFFF" p-id="979"></path></svg>