<?xml version="1.0" standalone="no"?><!DOCTYPE svg PUBLIC "-//W3C//DTD SVG 1.1//EN" "http://www.w3.org/Graphics/SVG/1.1/DTD/svg11.dtd"><svg t="1690700206477" class="icon" viewBox="0 0 1024 1024" version="1.1" xmlns="http://www.w3.org/2000/svg" p-id="1124" xmlns:xlink="http://www.w3.org/1999/xlink" width="32" height="32"><path d="M909.2096 917.6064H124.6208a51.2 51.2 0 0 1-42.3424-80.384L196.608 670.72a51.2 51.2 0 0 1 42.3424-22.3232h555.8784a51.2 51.2 0 0 1 42.3424 22.3232l114.3808 166.7072a51.2 51.2 0 0 1-42.3424 80.1792z" fill="#92DBFF" p-id="1125"></path><path d="M828.7232 404.48A311.8592 311.8592 0 0 0 506.88 92.6208c-168.6528 5.12-303.7696 146.688-302.08 315.4432 2.2016 200.9088 180.224 363.52 289.7408 420.9152a46.08 46.08 0 0 0 43.264 0c120.0128-65.5872 290.9184-227.2256 290.9184-424.4992z" fill="#42B4FA" p-id="1126"></path><path d="M516.9152 394.2912m-116.736 0a116.736 116.736 0 1 0 233.472 0 116.736 116.736 0 1 0-233.472 0Z" fill="#FFFFFF" p-id="1127"></path></svg>