<?xml version="1.0" standalone="no"?><!DOCTYPE svg PUBLIC "-//W3C//DTD SVG 1.1//EN" "http://www.w3.org/Graphics/SVG/1.1/DTD/svg11.dtd"><svg t="1690700209128" class="icon" viewBox="0 0 1024 1024" version="1.1" xmlns="http://www.w3.org/2000/svg" p-id="1270" xmlns:xlink="http://www.w3.org/1999/xlink" width="32" height="32"><path d="M312.064 104.7552h403.712a113.664 113.664 0 0 1 113.664 113.664v481.28H198.4v-481.28a113.664 113.664 0 0 1 113.664-113.664z" fill="#FECC87" p-id="1271"></path><path d="M818.0736 920.064H209.92a123.2896 123.2896 0 0 1-123.2896-123.2384V467.3024a61.44 61.44 0 0 1 95.744-51.2l331.7248 220.16 331.7248-220.16a61.44 61.44 0 0 1 95.6928 51.2v329.5232a123.2384 123.2384 0 0 1-123.4432 123.2384z" fill="#FD9F55" p-id="1272"></path><path d="M647.0656 293.2736h-266.24a40.96 40.96 0 0 1 0-81.92h266.24a40.96 40.96 0 0 1 0 81.92zM572.7744 437.1968H380.7232a40.96 40.96 0 0 1 0-81.92h192.0512a40.96 40.96 0 0 1 0 81.92z" fill="#FFFFFF" p-id="1273"></path></svg>