<?xml version="1.0" standalone="no"?><!DOCTYPE svg PUBLIC "-//W3C//DTD SVG 1.1//EN" "http://www.w3.org/Graphics/SVG/1.1/DTD/svg11.dtd"><svg t="1690700211226" class="icon" viewBox="0 0 1024 1024" version="1.1" xmlns="http://www.w3.org/2000/svg" p-id="1418" xmlns:xlink="http://www.w3.org/1999/xlink" width="32" height="32"><path d="M516.3008 766.0544l-418.56-199.936-48.5888-189.44A62.1568 62.1568 0 0 1 128 301.7728l388.5056 121.0368 386.7648-127.4368a54.528 54.528 0 0 1 70.5536 62.208l-38.8096 199.68z" fill="#FFDE8D" p-id="1419"></path><path d="M174.08 849.4592l-76.3392-283.3408L462.4896 138.24a68.8128 68.8128 0 0 1 104.0896-0.768l368.2304 419.84-62.9248 288.5632a81.92 81.92 0 0 1-80.1792 64.5632H253.3888A81.92 81.92 0 0 1 174.08 849.4592z" fill="#FDBA54" p-id="1420"></path><path d="M508.0576 786.2784a40.96 40.96 0 0 1-30.72-13.7728l-141.4656-159.744a40.96 40.96 0 1 1 61.44-54.3232l110.592 124.8256 108.544-124.5696a40.96 40.96 0 1 1 61.7472 53.8112l-139.1616 159.744a40.96 40.96 0 0 1-30.72 14.0288z" fill="#FFFFFF" p-id="1421"></path></svg>