<?xml version="1.0" standalone="no"?><!DOCTYPE svg PUBLIC "-//W3C//DTD SVG 1.1//EN" "http://www.w3.org/Graphics/SVG/1.1/DTD/svg11.dtd"><svg t="1690700213609" class="icon" viewBox="0 0 1024 1024" version="1.1" xmlns="http://www.w3.org/2000/svg" p-id="1566" xmlns:xlink="http://www.w3.org/1999/xlink" width="32" height="32"><path d="M102.9632 122.5216m93.6448 0l629.0944 0q93.6448 0 93.6448 93.6448l0 447.4368q0 93.6448-93.6448 93.6448l-629.0944 0q-93.6448 0-93.6448-93.6448l0-447.4368q0-93.6448 93.6448-93.6448Z" fill="#42B4FA" p-id="1567"></path><path d="M511.1296 240.2304a199.68 199.68 0 1 0 199.68 199.68 199.68 199.68 0 0 0-199.68-199.68z m-44.032 224.6656a69.0688 69.0688 0 1 1 69.0688-69.0688A69.0688 69.0688 0 0 1 467.0976 464.896z" fill="#FFFFFF" p-id="1568"></path><path d="M790.9376 906.5472H244.0192a41.8304 41.8304 0 0 1 0-83.6096h546.9184a41.8304 41.8304 0 0 1 0 83.6096z" fill="#92DBFF" p-id="1569"></path></svg>