<?xml version="1.0" standalone="no"?><!DOCTYPE svg PUBLIC "-//W3C//DTD SVG 1.1//EN" "http://www.w3.org/Graphics/SVG/1.1/DTD/svg11.dtd"><svg t="1690700215992" class="icon" viewBox="0 0 1024 1024" version="1.1" xmlns="http://www.w3.org/2000/svg" p-id="1712" xmlns:xlink="http://www.w3.org/1999/xlink" width="32" height="32"><path d="M130.0992 560.64l657.3568 365.6704a72.8064 72.8064 0 0 0 108.2368-63.6416V216.832a128.4608 128.4608 0 0 0-128.4608-128.4608H258.5088a128.4096 128.4096 0 0 0-128.4096 128.4608z" fill="#FFA4A4" p-id="1713"></path><path d="M895.6928 560.64L238.336 926.3104a72.8064 72.8064 0 0 1-108.2368-63.6416V216.832a128.4096 128.4096 0 0 1 128.4096-128.4608h508.7232a128.4608 128.4608 0 0 1 128.4608 128.4608z" fill="#F66462" p-id="1714"></path><path d="M532.48 246.0672l35.84 72.9088a21.5552 21.5552 0 0 0 16.2816 11.8784l80.4864 11.6736a21.6576 21.6576 0 0 1 12.032 36.9152L618.8544 436.224a21.8112 21.8112 0 0 0-6.2464 19.456l13.7728 80.1792a21.6576 21.6576 0 0 1-31.4368 22.784l-71.9872-37.8368a21.6064 21.6064 0 0 0-20.1728 0l-71.9872 37.8368a21.6064 21.6064 0 0 1-31.4368-23.04L413.1328 455.68a21.76 21.76 0 0 0-6.1952-19.2L348.672 379.4432a21.6576 21.6576 0 0 1 11.9808-36.9152l80.4864-11.6736a21.7088 21.7088 0 0 0 16.3328-11.8784l35.84-72.9088a21.6576 21.6576 0 0 1 39.168 0z" fill="#FFFFFF" p-id="1715"></path></svg>