<?xml version="1.0" standalone="no"?><!DOCTYPE svg PUBLIC "-//W3C//DTD SVG 1.1//EN" "http://www.w3.org/Graphics/SVG/1.1/DTD/svg11.dtd"><svg t="1690700220690" class="icon" viewBox="0 0 1024 1024" version="1.1" xmlns="http://www.w3.org/2000/svg" p-id="2009" xmlns:xlink="http://www.w3.org/1999/xlink" width="32" height="32"><path d="M65.028162 348.206165m101.276176-40.589618l502.626393-201.443364q101.276177-40.589619 141.865796 60.686558l106.492988 265.713329q40.589619 101.276177-60.686558 141.865795l-502.626393 201.443363q-101.276177 40.589619-141.865795-60.686558l-106.492989-265.713328q-40.589619-101.276177 60.686558-141.865795Z" fill="#FFC2D8" p-id="2010"></path><path d="M88.4736 306.8928m109.1072 0l628.7872 0q109.1072 0 109.1072 109.1072l0 383.7952q0 109.1072-109.1072 109.1072l-628.7872 0q-109.1072 0-109.1072-109.1072l0-383.7952q0-109.1072 109.1072-109.1072Z" fill="#FC5787" p-id="2011"></path><path d="M439.1424 551.68H233.1648a40.96 40.96 0 1 1 0-81.92h205.9776a40.96 40.96 0 0 1 0 81.92z" fill="#FFFFFF" p-id="2012"></path></svg>